<?xml version="1.0" encoding="iso-8859-1"?>
<!-- Uploaded to: SVG Repo, www.svgrepo.com, Generator: SVG Repo Mixer Tools -->
<svg version="1.1" id="Layer_1" xmlns="http://www.w3.org/2000/svg" xmlns:xlink="http://www.w3.org/1999/xlink" 
	 viewBox="25 0 116 512" xml:space="preserve">
<path style="fill:#FFCA66;" d="M98.062,7.093c-7.038-9.457-21.201-9.457-28.238,0L27.194,96.409v386.045
	c0,16.318,13.229,29.547,29.547,29.547h54.403c16.318,0,29.547-13.229,29.547-29.547V96.409L98.062,7.093z"/>
<g>
	<path style="opacity:0.15;fill:#293133;enable-background:new    ;" d="M56.938,482.453V96.409L98.815,8.669l-0.753-1.576
		c-7.038-9.457-21.201-9.457-28.238,0L27.194,96.409v386.045c0,16.318,13.229,29.547,29.547,29.547h29.744
		C70.166,512,56.938,498.771,56.938,482.453z"/>
	<rect x="27.194" y="366.43" style="fill:#293133;" width="113.495" height="47.496"/>
	<rect x="27.194" y="138.777" style="fill:#293133;" width="113.495" height="47.496"/>
	<ellipse style="fill:#293133;" cx="83.945" cy="276.353" rx="25.374" ry="56.559"/>
</g>
</svg>