<svg xmlns="http://www.w3.org/2000/svg" xmlns:xlink="http://www.w3.org/1999/xlink" version="1.1" viewBox="40 400 920 200" xml:space="preserve">
<desc>Created with Fabric.js 3.5.0</desc>
<defs>
</defs>
<g transform="matrix(0 -1.7756 1.7756 0 500.0081 499.9982)" id="568986">
<g style="" vector-effect="non-scaling-stroke">
		<g transform="matrix(1 0 0 1 0.9425 0.0006)" id="Layer_1">
<path style="stroke: none; stroke-width: 1; stroke-dasharray: none; stroke-linecap: butt; stroke-dashoffset: 0; stroke-linejoin: miter; stroke-miterlimit: 4; is-custom-font: none; font-file-url: none; fill: rgb(255,202,102); fill-rule: nonzero; opacity: 1;" transform=" translate(-83.9425, -256.0006)" d="M 98.062 7.093 c -7.038 -9.457 -21.201 -9.457 -28.238 0 L 27.194 96.409 v 386.045 c 0 16.318 13.229 29.547 29.547 29.547 h 54.403 c 16.318 0 29.547 -13.229 29.547 -29.547 V 96.409 L 98.062 7.093 z" stroke-linecap="round"/>
</g>
		<g transform="matrix(1 0 0 1 -19.9955 0.0006)" id="Layer_1">
<path style="stroke: none; stroke-width: 1; stroke-dasharray: none; stroke-linecap: butt; stroke-dashoffset: 0; stroke-linejoin: miter; stroke-miterlimit: 4; is-custom-font: none; font-file-url: none; fill: rgb(41,49,51); fill-rule: nonzero; opacity: 0.15;" transform=" translate(-63.0045, -256.0006)" d="M 56.938 482.453 V 96.409 L 98.815 8.669 l -0.753 -1.576 c -7.038 -9.457 -21.201 -9.457 -28.238 0 L 27.194 96.409 v 386.045 c 0 16.318 13.229 29.547 29.547 29.547 h 29.744 C 70.166 512 56.938 498.771 56.938 482.453 z" stroke-linecap="round"/>
</g>
		<g transform="matrix(1 0 0 1 0.9415 134.178)" id="Layer_1">
<rect style="stroke: none; stroke-width: 1; stroke-dasharray: none; stroke-linecap: butt; stroke-dashoffset: 0; stroke-linejoin: miter; stroke-miterlimit: 4; is-custom-font: none; font-file-url: none; fill: rgb(41,49,51); fill-rule: nonzero; opacity: 1;" x="-56.7475" y="-23.748" rx="0" ry="0" width="113.495" height="47.496"/>
</g>
		<g transform="matrix(1 0 0 1 0.9415 -93.475)" id="Layer_1">
<rect style="stroke: none; stroke-width: 1; stroke-dasharray: none; stroke-linecap: butt; stroke-dashoffset: 0; stroke-linejoin: miter; stroke-miterlimit: 4; is-custom-font: none; font-file-url: none; fill: rgb(41,49,51); fill-rule: nonzero; opacity: 1;" x="-56.7475" y="-23.748" rx="0" ry="0" width="113.495" height="47.496"/>
</g>
		<g transform="matrix(1 0 0 1 0.945 20.353)" id="Layer_1">
<ellipse style="stroke: none; stroke-width: 1; stroke-dasharray: none; stroke-linecap: butt; stroke-dashoffset: 0; stroke-linejoin: miter; stroke-miterlimit: 4; is-custom-font: none; font-file-url: none; fill: rgb(41,49,51); fill-rule: nonzero; opacity: 1;" cx="0" cy="0" rx="25.374" ry="56.559"/>
</g>
</g>
</g>
</svg>