<svg xmlns="http://www.w3.org/2000/svg" xmlns:xlink="http://www.w3.org/1999/xlink" version="1.1" viewBox="40 400 920 200" xml:space="preserve">
<desc>Created with Fabric.js 3.5.0</desc>
<defs>
</defs>
<g transform="matrix(0 1.7756 -1.7756 0 499.9919 500.0018)" id="252204">
<g style="" vector-effect="non-scaling-stroke">
		<g transform="matrix(1 0 0 1 -0.1 49.492)" id="Layer_1">1000
<polygon style="stroke: none; stroke-width: 1; stroke-dasharray: none; stroke-linecap: butt; stroke-dashoffset: 0; stroke-linejoin: miter; stroke-miterlimit: 4; is-custom-font: none; font-file-url: none; fill: rgb(255,202,102); fill-rule: nonzero; opacity: 1;" points="-27.951,168.395 27.951,168.395 55.342,131.588 55.342,-168.395 -55.342,-168.395 -55.342,131.588 "/>
</g>
		<g transform="matrix(1 0 0 1 -0.0995 -144.2485)" id="Layer_1">
<rect style="stroke: none; stroke-width: 1; stroke-dasharray: none; stroke-linecap: butt; stroke-dashoffset: 0; stroke-linejoin: miter; stroke-miterlimit: 4; is-custom-font: none; font-file-url: none; fill: rgb(133,161,166); fill-rule: nonzero; opacity: 1;" x="-55.3405" y="-33.9585" rx="0" ry="0" width="110.681" height="67.917"/>
</g>
		<g transform="matrix(1 0 0 1 -0.1 -212.5185)" id="Layer_1">
<path style="stroke: none; stroke-width: 1; stroke-dasharray: none; stroke-linecap: butt; stroke-dashoffset: 0; stroke-linejoin: miter; stroke-miterlimit: 4; is-custom-font: none; font-file-url: none; fill: rgb(255,128,149); fill-rule: nonzero; opacity: 1;" transform=" translate(-144.4, -43.4815)" d="M 170.927 0.553 h -53.055 c -15.913 0 -28.814 12.901 -28.814 28.814 v 57.043 h 110.684 V 29.368 C 199.742 13.454 186.841 0.553 170.927 0.553 z" stroke-linecap="round"/>
</g>
		<g transform="matrix(1 0 0 1 -0.1 185.1625)" id="Layer_1">
<polygon style="stroke: none; stroke-width: 1; stroke-dasharray: none; stroke-linecap: butt; stroke-dashoffset: 0; stroke-linejoin: miter; stroke-miterlimit: 4; is-custom-font: none; font-file-url: none; fill: rgb(255,228,179); fill-rule: nonzero; opacity: 1;" points="27.951,32.7245 55.342,-4.0825 36.895,-32.7245 18.447,-4.0825 0,-32.7245 -18.447,-4.0825 -36.895,-32.7245 -55.342,-4.0825 -27.951,32.7245 "/>
</g>
		<g transform="matrix(1 0 0 1 -0.1 236.667)" id="Layer_1">
<polygon style="stroke: none; stroke-width: 1; stroke-dasharray: none; stroke-linecap: butt; stroke-dashoffset: 0; stroke-linejoin: miter; stroke-miterlimit: 4; is-custom-font: none; font-file-url: none; fill: rgb(41,49,51); fill-rule: nonzero; opacity: 1;" points="0,18.78 27.951,-18.78 -27.951,-18.78 "/>
</g>
		<g transform="matrix(1 0 0 1 -29.1025 185.1625)" id="Layer_1">
<polygon style="stroke: none; stroke-width: 1; stroke-dasharray: none; stroke-linecap: butt; stroke-dashoffset: 0; stroke-linejoin: miter; stroke-miterlimit: 4; is-custom-font: none; font-file-url: none; fill: rgb(255,228,179); fill-rule: nonzero; opacity: 1;" points="-1.0515,-4.0825 -1.0515,-22.1045 -7.8925,-32.7245 -26.3395,-4.0825 1.0515,32.7245 26.3395,32.7245 26.3395,32.7245 "/>
</g>
</g>
</g>
</svg>