<?xml version="1.0" encoding="iso-8859-1"?>
<!-- Uploaded to: SVG Repo, www.svgrepo.com, Generator: SVG Repo Mixer Tools -->
<svg version="1.1" id="Layer_1" xmlns="http://www.w3.org/2000/svg" xmlns:xlink="http://www.w3.org/1999/xlink" 
	 viewBox="88 0 113 512" xml:space="preserve">
<polygon style="fill:#FFCA66;" points="116.449,473.887 172.351,473.887 199.742,437.08 199.742,137.097 89.058,137.097 
	89.058,437.08 "/>
<rect x="89.06" y="77.793" style="fill:#85A1A6;" width="110.681" height="67.917"/>
<path style="fill:#FF8095;" d="M170.927,0.553h-53.055c-15.913,0-28.814,12.901-28.814,28.814v57.043h110.684V29.368
	C199.742,13.454,186.841,0.553,170.927,0.553z"/>
<polygon style="fill:#FFE4B3;" points="172.351,473.887 199.742,437.08 181.295,408.438 162.847,437.08 144.4,408.438 
	125.953,437.08 107.505,408.438 89.058,437.08 116.449,473.887 "/>
<polygon style="fill:#293133;" points="144.4,511.447 172.351,473.887 116.449,473.887 "/>
<polygon style="fill:#FFE4B3;" points="114.346,437.08 114.346,419.058 107.505,408.438 89.058,437.08 116.449,473.887 
	141.737,473.887 141.737,473.887 "/>
</svg>